<?xml version="1.0" encoding="iso-8859-1"?>
<!-- Generator: Adobe Illustrator 19.0.0, SVG Export Plug-In . SVG Version: 6.00 Build 0)  -->
<svg version="1.1" id="Capa_1" xmlns="http://www.w3.org/2000/svg" xmlns:xlink="http://www.w3.org/1999/xlink" x="0px" y="0px"
	 viewBox="0 0 384 384" style="enable-background:new 0 0 384 384;" xml:space="preserve">
<path style="fill:#CCE4FF;" d="M280,192l-48,48H22.64C18.32,224.72,16,208.64,16,192s2.32-32.72,6.64-48H232L280,192z"/>
<path style="fill:#007AFF;" d="M192,0C106.472,0,30.504,57.424,7.24,139.648l0,0C2.44,156.648,0,174.264,0,192
	s2.44,35.352,7.24,52.352C30.504,326.576,106.472,384,192,384c105.864,0,192-86.128,192-192S297.864,0,192,0z M232,166.632
	L232,166.632L257.376,192L232,217.376l0,0L225.368,224H35.24C33.104,213.496,32,202.776,32,192s1.104-21.496,3.24-32h190.128
	L232,166.632z M192,352c-63.96,0-121.392-38.592-146.536-96h147.912l-40,40L176,318.632L254.624,240l48-48l-48-48L176,65.368
	L153.376,88l40,40H45.464C70.608,70.592,128.04,32,192,32c88.224,0,160,71.776,160,160S280.224,352,192,352z"/>
<g>
</g>
<g>
</g>
<g>
</g>
<g>
</g>
<g>
</g>
<g>
</g>
<g>
</g>
<g>
</g>
<g>
</g>
<g>
</g>
<g>
</g>
<g>
</g>
<g>
</g>
<g>
</g>
<g>
</g>
</svg>
